<?xml version="1.0" encoding="utf-8"?>
<svg width="1600" height="800" xmlns="http://www.w3.org/2000/svg">

<style id="hdl21-schematic-style">

/* Styling for Symbol and Wire Elements */
.hdl21-symbols {
  fill: none;
  stroke: black;
  stroke-opacity: 1;
  stroke-miterlimit: 0;
  stroke-linecap: round;
  stroke-linejoin: round;
  stroke-width: 10px;
  stroke-dashoffset: 0px;
}

.hdl21-instance-port {
  fill: white;
  stroke: black;
  stroke-opacity: 1;
  stroke-miterlimit: 0;
  stroke-linecap: round;
  stroke-linejoin: round;
  stroke-width: 4px;
  stroke-dashoffset: 0px;
}

.hdl21-dot {
  fill: blue;
  stroke: blue;
  stroke-opacity: 1;
  stroke-miterlimit: 0;
  stroke-linecap: round;
  stroke-linejoin: round;
  stroke-width: 4px;
  stroke-dashoffset: 0px;
}

.hdl21-wire {
  fill: none;
  stroke: blue;
  stroke-opacity: 1;
  stroke-miterlimit: 0;
  stroke-linecap: round;
  stroke-linejoin: round;
  stroke-width: 10px;
  stroke-dashoffset: 0px;
}

/* Styling for Text Labels */
.hdl21-labels,
.hdl21-instance-name,
.hdl21-instance-of,
.hdl21-port-name,
.hdl21-wire-name {
  fill: black;
  font-family: Menlo, Monaco, 'Courier New', monospace;
  font-weight: bold;
  font-size: 16px;
}

/* Dark Mode Color Overrides */
@media (prefers-color-scheme:dark) {
    svg {
        background-color: #1e1e1e;
    }
    .hdl21-dot {
        fill: #87d3f8;
        stroke: #87d3f8;
    }
    .hdl21-wire {
        stroke: #87d3f8;
    }
    .hdl21-symbols {
        stroke: lightgrey;
    }
    .hdl21-labels,
    .hdl21-port-name,
    .hdl21-instance-name,
    .hdl21-instance-of,
    .hdl21-wire-name {
        fill: lightgrey;
    }
}
</style>
<defs id="hdl21-schematic-defs">
  <g id="hdl21-schematic-prelude">
  <text>import hdl21 as h </text>
  <text>from hdl21.primitives import *</text>
  </g>

    <!-- Grid Background -->
    <pattern id="hdl21-grid-minor" width="10" height="10" patternUnits="userSpaceOnUse">
        <path d="M 10 0 L 0 0 0 10" fill="none" stroke="gray" stroke-width="0.5"/>
    </pattern>
    <pattern id="hdl21-grid-major" width="100" height="100" patternUnits="userSpaceOnUse">
        <rect width="100" height="100" fill="url(#hdl21-grid-minor)"/>
        <path d="M 100 0 L 0 0 0 100" fill="none" stroke="gray" stroke-width="1"/>
    </pattern>
</defs>

<rect id="hdl21-schematic-background" width="100%" height="100%" fill="url(#hdl21-grid-major)" stroke="gray" stroke-width="1"/>

<!-- Svg Schematic Content -->

<g class="hdl21-instance" transform="matrix(1 0 0 1 190 80)">
  <g class="hdl21::primitives::nmos">
    <path d="M 0 0 L 0 30 L -28 30 L -28 70 L 0 70 L 0 100" class="hdl21-symbols" />
    <path d="M -40 30 L -40 70" class="hdl21-symbols" />
    <path d="M -40 50 L -70 50" class="hdl21-symbols" />
    <path d="M 0 50 L 20 50" class="hdl21-symbols" />
    <path d="M -10 60 L -10 80 L 5 70 Z" class="hdl21-symbols" />
    <circle cx="0" cy="0" r="4" class="hdl21-instance-port" />
    <circle cx="-70" cy="50" r="4" class="hdl21-instance-port" />
    <circle cx="0" cy="100" r="4" class="hdl21-instance-port" />
    <circle cx="20" cy="50" r="4" class="hdl21-instance-port" />
  </g>
  <text  x="10" y="0"  class="hdl21-instance-name">n0</text>
  <text  x="10" y="80"  class="hdl21-instance-of">Nmos(params)</text>
</g>
<g class="hdl21-instance" transform="matrix(1 0 0 -1 390 180)">
  <g class="hdl21::primitives::nmos">
    <path d="M 0 0 L 0 30 L -28 30 L -28 70 L 0 70 L 0 100" class="hdl21-symbols" />
    <path d="M -40 30 L -40 70" class="hdl21-symbols" />
    <path d="M -40 50 L -70 50" class="hdl21-symbols" />
    <path d="M 0 50 L 20 50" class="hdl21-symbols" />
    <path d="M -10 60 L -10 80 L 5 70 Z" class="hdl21-symbols" />
    <circle cx="0" cy="0" r="4" class="hdl21-instance-port" />
    <circle cx="-70" cy="50" r="4" class="hdl21-instance-port" />
    <circle cx="0" cy="100" r="4" class="hdl21-instance-port" />
    <circle cx="20" cy="50" r="4" class="hdl21-instance-port" />
  </g>
  <text  x="10" y="0"  class="hdl21-instance-name">n</text>
  <text  x="10" y="80"  class="hdl21-instance-of">nmos()</text>
</g>
<g class="hdl21-instance" transform="matrix(0 1 1 0 310 300)">
  <g class="hdl21::primitives::nmos">
    <path d="M 0 0 L 0 30 L -28 30 L -28 70 L 0 70 L 0 100" class="hdl21-symbols" />
    <path d="M -40 30 L -40 70" class="hdl21-symbols" />
    <path d="M -40 50 L -70 50" class="hdl21-symbols" />
    <path d="M 0 50 L 20 50" class="hdl21-symbols" />
    <path d="M -10 60 L -10 80 L 5 70 Z" class="hdl21-symbols" />
    <circle cx="0" cy="0" r="4" class="hdl21-instance-port" />
    <circle cx="-70" cy="50" r="4" class="hdl21-instance-port" />
    <circle cx="0" cy="100" r="4" class="hdl21-instance-port" />
    <circle cx="20" cy="50" r="4" class="hdl21-instance-port" />
  </g>
  <text  x="10" y="0"  class="hdl21-instance-name">n</text>
  <text  x="10" y="80"  class="hdl21-instance-of">nmos()</text>
</g>
<g class="hdl21-instance" transform="matrix(0 1 -1 0 100 300)">
  <g class="hdl21::primitives::nmos">
    <path d="M 0 0 L 0 30 L -28 30 L -28 70 L 0 70 L 0 100" class="hdl21-symbols" />
    <path d="M -40 30 L -40 70" class="hdl21-symbols" />
    <path d="M -40 50 L -70 50" class="hdl21-symbols" />
    <path d="M 0 50 L 20 50" class="hdl21-symbols" />
    <path d="M -10 60 L -10 80 L 5 70 Z" class="hdl21-symbols" />
    <circle cx="0" cy="0" r="4" class="hdl21-instance-port" />
    <circle cx="-70" cy="50" r="4" class="hdl21-instance-port" />
    <circle cx="0" cy="100" r="4" class="hdl21-instance-port" />
    <circle cx="20" cy="50" r="4" class="hdl21-instance-port" />
  </g>
  <text  x="10" y="0"  class="hdl21-instance-name">n5</text>
  <text  x="10" y="80"  class="hdl21-instance-of">nmos()</text>
</g>
<g class="hdl21-instance" transform="matrix(-1 0 0 -1 150 550)">
  <g class="hdl21::primitives::nmos">
    <path d="M 0 0 L 0 30 L -28 30 L -28 70 L 0 70 L 0 100" class="hdl21-symbols" />
    <path d="M -40 30 L -40 70" class="hdl21-symbols" />
    <path d="M -40 50 L -70 50" class="hdl21-symbols" />
    <path d="M 0 50 L 20 50" class="hdl21-symbols" />
    <path d="M -10 60 L -10 80 L 5 70 Z" class="hdl21-symbols" />
    <circle cx="0" cy="0" r="4" class="hdl21-instance-port" />
    <circle cx="-70" cy="50" r="4" class="hdl21-instance-port" />
    <circle cx="0" cy="100" r="4" class="hdl21-instance-port" />
    <circle cx="20" cy="50" r="4" class="hdl21-instance-port" />
  </g>
  <text  x="10" y="0"  class="hdl21-instance-name">n</text>
  <text  x="10" y="80"  class="hdl21-instance-of">nmos()</text>
</g>
<g class="hdl21-instance" transform="matrix(-1 0 0 1 340 450)">
  <g class="hdl21::primitives::nmos">
    <path d="M 0 0 L 0 30 L -28 30 L -28 70 L 0 70 L 0 100" class="hdl21-symbols" />
    <path d="M -40 30 L -40 70" class="hdl21-symbols" />
    <path d="M -40 50 L -70 50" class="hdl21-symbols" />
    <path d="M 0 50 L 20 50" class="hdl21-symbols" />
    <path d="M -10 60 L -10 80 L 5 70 Z" class="hdl21-symbols" />
    <circle cx="0" cy="0" r="4" class="hdl21-instance-port" />
    <circle cx="-70" cy="50" r="4" class="hdl21-instance-port" />
    <circle cx="0" cy="100" r="4" class="hdl21-instance-port" />
    <circle cx="20" cy="50" r="4" class="hdl21-instance-port" />
  </g>
  <text  x="10" y="0"  class="hdl21-instance-name">n</text>
  <text  x="10" y="80"  class="hdl21-instance-of">nmos()</text>
</g>
<g class="hdl21-instance" transform="matrix(0 -1 1 0 200 700)">
  <g class="hdl21::primitives::nmos">
    <path d="M 0 0 L 0 30 L -28 30 L -28 70 L 0 70 L 0 100" class="hdl21-symbols" />
    <path d="M -40 30 L -40 70" class="hdl21-symbols" />
    <path d="M -40 50 L -70 50" class="hdl21-symbols" />
    <path d="M 0 50 L 20 50" class="hdl21-symbols" />
    <path d="M -10 60 L -10 80 L 5 70 Z" class="hdl21-symbols" />
    <circle cx="0" cy="0" r="4" class="hdl21-instance-port" />
    <circle cx="-70" cy="50" r="4" class="hdl21-instance-port" />
    <circle cx="0" cy="100" r="4" class="hdl21-instance-port" />
    <circle cx="20" cy="50" r="4" class="hdl21-instance-port" />
  </g>
  <text  x="10" y="0"  class="hdl21-instance-name">n</text>
  <text  x="10" y="80"  class="hdl21-instance-of">nmos()</text>
</g>
<g class="hdl21-instance" transform="matrix(0 -1 -1 0 400 700)">
  <g class="hdl21::primitives::nmos">
    <path d="M 0 0 L 0 30 L -28 30 L -28 70 L 0 70 L 0 100" class="hdl21-symbols" />
    <path d="M -40 30 L -40 70" class="hdl21-symbols" />
    <path d="M -40 50 L -70 50" class="hdl21-symbols" />
    <path d="M 0 50 L 20 50" class="hdl21-symbols" />
    <path d="M -10 60 L -10 80 L 5 70 Z" class="hdl21-symbols" />
    <circle cx="0" cy="0" r="4" class="hdl21-instance-port" />
    <circle cx="-70" cy="50" r="4" class="hdl21-instance-port" />
    <circle cx="0" cy="100" r="4" class="hdl21-instance-port" />
    <circle cx="20" cy="50" r="4" class="hdl21-instance-port" />
  </g>
  <text  x="10" y="0"  class="hdl21-instance-name">n</text>
  <text  x="10" y="80"  class="hdl21-instance-of">nmos()</text>
</g>








</svg>
