<?xml version="1.0" encoding="utf-8"?>
    <svg width="1000" height="1000" xmlns="http://www.w3.org/2000/svg">
        <defs>
        <!-- Styling for Symbol and Wire Elements -->
        <style>
        .hdl21-symbols {
            fill: none;
            stroke: black;
            stroke-opacity: 1;
            stroke-miterlimit: 0;
            stroke-linecap: round;
            stroke-linejoin: round;
            stroke-width: 4px;
            stroke-dashoffset: 0px;
        }

        .hdl21-labels {
            fill: black;
            font-family: comic sans ms; /* We know, it's just too funny */
            font-size: 16px;
        }

        .hdl21-wires {
            fill: none;
            stroke: blue;
            stroke-opacity: 1;
            stroke-miterlimit: 0;
            stroke-linecap: round;
            stroke-linejoin: round;
            stroke-width: 4px;
            stroke-dashoffset: 0px;
        }
        </style>

        <!-- The Symbol Library -->
        <g id="hdl21::primitives::nmos">
            <path d="M 0 0 L 0 8 L 10 8 L 10 24 L 0 24 L 0 32" class="hdl21-symbols" />
            <path d="M 16 8 L 16 24" class="hdl21-symbols" />
            <path d="M 4 28 L -2 24 L 4 20 Z M 4 36" class="hdl21-symbols" />
        </g>
        <g id="hdl21::primitives::pmos">
            <path d="M 0 0 L 0 8 L 10 8 L 10 24 L 0 24 L 0 32" class="hdl21-symbols" />
            <path d="M 16 8 L 16 24" class="hdl21-symbols" />
            <path d="M 6 12 L 12 8 L 6 4 Z M 6 20" class="hdl21-symbols" />
        </g>

    </defs> <!-- End Definitions -->
    
    <!-- Svg Schematic Content -->
    
    <!-- Instances -->
    <g class="hdl21-instance" transform="matrix(-1 0 0 1 100 100)">
        <!-- <use  transform="matrix(1 0 0 1 0 0)"    href="#hdl21::primitives::nmos" /> -->
        <g id="hdl21::primitives::nmos">
            <path d="M 0 0 L 0 8 L 10 8 L 10 24 L 0 24 L 0 32" class="hdl21-symbols" />
            <path d="M 16 8 L 16 24" class="hdl21-symbols" />
            <path d="M 4 28 L -2 24 L 4 20 Z M 4 36" class="hdl21-symbols" />
        </g>
        <text transform="matrix(-1 0 0 1 -5 0)"  class="hdl21-labels">@nmos0</text>
        <text transform="matrix(-1 0 0 1 -5 45)" class="hdl21-labels">@nmos(args)</text>
    </g>
    <g class="hdl21-instance" transform="matrix(-1 0 0 1 100 30)">
        <!-- <use  transform="matrix(1 0 0 1 0 0)"    href="#hdl21::primitives::pmos" /> -->
        <g id="hdl21::primitives::pmos">
            <path d="M 0 0 L 0 8 L 10 8 L 10 24 L 0 24 L 0 32" class="hdl21-symbols" />
            <path d="M 16 8 L 16 24" class="hdl21-symbols" />
            <path d="M 6 12 L 12 8 L 6 4 Z M 6 20" class="hdl21-symbols" />
        </g>
        <text transform="matrix(-1 0 0 1 -5 0)"  class="hdl21-labels">@p0</text>
        <text transform="matrix(-1 0 0 1 -5 45)" class="hdl21-labels">@pmos(args)</text>
    </g>

    <!-- Wires -->
    <path class="hdl21-wires" d="M 100 62 L 100 100" />
    <path class="hdl21-wires" d="M 100 132 L 100 152" />
    <path class="hdl21-wires" d="M 90 152 L 110 152" />
    <path class="hdl21-wires" d="M 100 30 L 100 10" />
    <path class="hdl21-wires" d="M 90 10 L 110 10" />
    <path class="hdl21-wires" d="M 60 46 L 82 46" />
    <path class="hdl21-wires" d="M 60 116 L 82 116" />
    <path class="hdl21-wires" d="M 60 116 L 60 46" />

</svg>