<?xml version="1.0" encoding="utf-8"?>
<svg width="1600" height="800" xmlns="http://www.w3.org/2000/svg">

<style id="hdl21-schematic-style">

/* Styling for Symbol and Wire Elements */
.hdl21-symbols {
  fill: none;
  stroke: black;
  stroke-opacity: 1;
  stroke-miterlimit: 0;
  stroke-linecap: round;
  stroke-linejoin: round;
  stroke-width: 10px;
  stroke-dashoffset: 0px;
}

.hdl21-instance-port {
  fill: white;
  stroke: black;
  stroke-opacity: 1;
  stroke-miterlimit: 0;
  stroke-linecap: round;
  stroke-linejoin: round;
  stroke-width: 4px;
  stroke-dashoffset: 0px;
}

.hdl21-dot {
  fill: blue;
  stroke: blue;
  stroke-opacity: 1;
  stroke-miterlimit: 0;
  stroke-linecap: round;
  stroke-linejoin: round;
  stroke-width: 4px;
  stroke-dashoffset: 0px;
}

.hdl21-wire {
  fill: none;
  stroke: blue;
  stroke-opacity: 1;
  stroke-miterlimit: 0;
  stroke-linecap: round;
  stroke-linejoin: round;
  stroke-width: 10px;
  stroke-dashoffset: 0px;
}

/* Styling for Text Labels */
.hdl21-labels,
.hdl21-instance-name,
.hdl21-instance-of,
.hdl21-port-name,
.hdl21-wire-name {
  fill: black;
  font-family: Menlo, Monaco, 'Courier New', monospace;
  font-weight: bold;
  font-size: 16px;
}

/* Dark Mode Color Overrides */
@media (prefers-color-scheme:dark) {
    svg {
        background-color: #1e1e1e;
    }
    .hdl21-dot {
        fill: #87d3f8;
        stroke: #87d3f8;
    }
    .hdl21-wire {
        stroke: #87d3f8;
    }
    .hdl21-symbols {
        stroke: lightgrey;
    }
    .hdl21-labels,
    .hdl21-port-name,
    .hdl21-instance-name,
    .hdl21-instance-of,
    .hdl21-wire-name {
        fill: lightgrey;
    }
}
</style>
<defs id="hdl21-schematic-defs">
  <g id="hdl21-schematic-prelude">
  <text>import hdl21 as h </text>
  <text>from hdl21.primitives import *</text>
  </g>
  <text id="hdl21-schematic-circuit">
    {"name":"","prelude":"import hdl21 as h \nfrom hdl21.primitives import *","signals":[{"name":"out","portdir":"OUTPUT"},{"name":"VSS","portdir":"INOUT"},{"name":"inp","portdir":"INPUT"}],"instances":[{"name":"l","of":"Ind3()","conns":[{"portname":"p","signame":"out"},{"portname":"n","signame":"VSS"},{"portname":"b","signame":"VSS"}]},{"name":"i","of":"Vccs()","conns":[{"portname":"p","signame":"out"},{"portname":"n","signame":"VSS"},{"portname":"cp","signame":"inp"},{"portname":"cn","signame":"VSS"}]},{"name":"c","of":"Cap3()","conns":[{"portname":"p","signame":"out"},{"portname":"n","signame":"VSS"},{"portname":"b","signame":"VSS"}]},{"name":"r","of":"Res3()","conns":[{"portname":"p","signame":"out"},{"portname":"n","signame":"VSS"},{"portname":"b","signame":"VSS"}]}]}
  </text>

    <!-- Grid Background -->
    <pattern id="hdl21-grid-minor" width="10" height="10" patternUnits="userSpaceOnUse">
        <path d="M 10 0 L 0 0 0 10" fill="none" stroke="gray" stroke-width="0.5"/>
    </pattern>
    <pattern id="hdl21-grid-major" width="100" height="100" patternUnits="userSpaceOnUse">
        <rect width="100" height="100" fill="url(#hdl21-grid-minor)"/>
        <path d="M 100 0 L 0 0 0 100" fill="none" stroke="gray" stroke-width="1"/>
    </pattern>
</defs>

<rect id="hdl21-schematic-background" width="100%" height="100%" fill="url(#hdl21-grid-major)" stroke="gray" stroke-width="1"/>

<!-- Svg Schematic Content -->

<g class="hdl21-instance" transform="matrix(1 0 0 1 550 100)">
  <g class="hdl21-elements-ind3">
    <path d="M 0 20 C 36 20, 36 40, 0 40 C 36 40, 36 60, 0 60 C 36 60, 36 80, 0 80" class="hdl21-symbols"/>
    <path d="M 0 0 L 0 20" class="hdl21-symbols" />
    <path d="M 0 80 L 0 100" class="hdl21-symbols" />
    <path d="M -5 50 L -20 50" class="hdl21-symbols" />
    <circle cx="0" cy="0" r="4" class="hdl21-instance-port" />
    <circle cx="0" cy="100" r="4" class="hdl21-instance-port" />
    <circle cx="-20" cy="50" r="4" class="hdl21-instance-port" />
  </g>
  <text  x="10" y="0"  class="hdl21-instance-name">l</text>
  <text  x="10" y="90"  class="hdl21-instance-of">Ind3()</text>
</g>
<g class="hdl21-instance" transform="matrix(1 0 0 1 300 100)">
  <g class="hdl21-elements-isource4">
    <circle cx="0" cy="50" r="30" class="hdl21-symbols" />
    <path d="M 0 0 L 0 20" class="hdl21-symbols" />
    <path d="M 0 80 L 0 100" class="hdl21-symbols" />
    <path d="M 0 35 L 0 65" class="hdl21-symbols" />
    <path d="M 0 35 L -10 47 L 10 47 Z" class="hdl21-symbols" />
    <path d="M -40 30 L -25 30" class="hdl21-symbols" />
    <path d="M -40 70 L -25 70" class="hdl21-symbols" />
    <circle cx="0" cy="0" r="4" class="hdl21-instance-port" />
    <circle cx="0" cy="100" r="4" class="hdl21-instance-port" />
    <circle cx="-40" cy="30" r="4" class="hdl21-instance-port" />
    <circle cx="-40" cy="70" r="4" class="hdl21-instance-port" />
  </g>
  <text  x="10" y="0"  class="hdl21-instance-name">i</text>
  <text  x="10" y="90"  class="hdl21-instance-of">Vccs()</text>
</g>
<g class="hdl21-instance" transform="matrix(1 0 0 1 700 100)">
  <g class="hdl21-elements-cap3">
    <path d="M 0 0 L 0 40" class="hdl21-symbols" />
    <path d="M -20 40 L 20 40" class="hdl21-symbols" />
    <path d="M -20 60 L 20 60" class="hdl21-symbols" />
    <path d="M 0 60 L 0 100" class="hdl21-symbols" />
    <path d="M -40 50 L -25 50" class="hdl21-symbols" />
    <circle cx="0" cy="0" r="4" class="hdl21-instance-port" />
    <circle cx="0" cy="100" r="4" class="hdl21-instance-port" />
    <circle cx="-40" cy="50" r="4" class="hdl21-instance-port" />
  </g>
  <text  x="10" y="0"  class="hdl21-instance-name">c</text>
  <text  x="10" y="90"  class="hdl21-instance-of">Cap3()</text>
</g>
<g class="hdl21-instance" transform="matrix(1 0 0 1 400 100)">
  <g class="hdl21-elements-res3">
    <path d="M 0 0 L 0 20 L 30 30 L 0 40 L 30 50 L 0 60 L 30 70 L 0 80 L 0 100" class="hdl21-symbols" />
    <path d="M -5 50 L -20 50" class="hdl21-symbols" />
    <circle cx="0" cy="0" r="4" class="hdl21-instance-port" />
    <circle cx="0" cy="100" r="4" class="hdl21-instance-port" />
    <circle cx="-20" cy="50" r="4" class="hdl21-instance-port" />
  </g>
  <text  x="10" y="0"  class="hdl21-instance-name">r</text>
  <text  x="10" y="90"  class="hdl21-instance-of">Res3()</text>
</g>


<g class="hdl21-port" transform="matrix(1 0 0 1 750 60)">
  <g class="hdl21-ports-output">
    <path d="M 20 -10 L 20 10 L 40 10 L 50 0 L 40 -10 Z" class="hdl21-symbols" />
    <path d="M 0 0 L 20 0" class="hdl21-symbols" />
    <circle cx="0" cy="0" r="4" class="hdl21-instance-port" />
  </g>
  <text  x="20" y="-25"  class="hdl21-port-name">out</text>
</g>
<g class="hdl21-port" transform="matrix(-1 0 0 1 220 240)">
  <g class="hdl21-ports-inout">
    <path d="M 20 -10 L 10 0 L 20 10 L 40 10 L 50 0 L 40 -10 Z" class="hdl21-symbols" />
    <path d="M 0 0 L 10 0" class="hdl21-symbols" />
    <circle cx="0" cy="0" r="4" class="hdl21-instance-port" />
  </g>
  <text  x="15" y="-25"  class="hdl21-port-name">VSS</text>
</g>
<g class="hdl21-port" transform="matrix(1 0 0 1 230 130)">
  <g class="hdl21-ports-input">
    <path d="M -50 -10 L -50 10 L -30 10 L -20 0 L -30 -10 Z" class="hdl21-symbols" />
    <path d="M -20 0 L 0 0" class="hdl21-symbols" />
    <circle cx="0" cy="0" r="4" class="hdl21-instance-port" />
  </g>
  <text  x="-50" y="-25"  class="hdl21-port-name">inp</text>
</g>


<g class="hdl21-wire">
  <path class="hdl21-wire" d="M 400 100 L 400 60 L 400 60" />
  <text visibility="hidden" class="hdl21-wire-name"></text>
</g>
<g class="hdl21-wire">
  <path class="hdl21-wire" d="M 550 100 L 550 60 L 550 60" />
  <text visibility="hidden" class="hdl21-wire-name"></text>
</g>
<g class="hdl21-wire">
  <path class="hdl21-wire" d="M 700 100 L 700 60 L 700 60" />
  <text visibility="hidden" class="hdl21-wire-name"></text>
</g>
<g class="hdl21-wire">
  <path class="hdl21-wire" d="M 550 200 L 550 240 L 550 240" />
  <text visibility="hidden" class="hdl21-wire-name"></text>
</g>
<g class="hdl21-wire">
  <path class="hdl21-wire" d="M 400 200 L 400 240 L 400 240" />
  <text visibility="hidden" class="hdl21-wire-name"></text>
</g>
<g class="hdl21-wire">
  <path class="hdl21-wire" d="M 660 150 L 660 200 L 700 200 L 700 200" />
  <text visibility="hidden" class="hdl21-wire-name"></text>
</g>
<g class="hdl21-wire">
  <path class="hdl21-wire" d="M 530 150 L 530 200 L 550 200 L 550 200" />
  <text visibility="hidden" class="hdl21-wire-name"></text>
</g>
<g class="hdl21-wire">
  <path class="hdl21-wire" d="M 380 150 L 380 200 L 400 200 L 400 200" />
  <text visibility="hidden" class="hdl21-wire-name"></text>
</g>
<g class="hdl21-wire">
  <path class="hdl21-wire" d="M 230 130 L 260 130 L 260 130" />
  <text visibility="hidden" class="hdl21-wire-name"></text>
</g>
<g class="hdl21-wire">
  <path class="hdl21-wire" d="M 220 240 L 700 240 L 700 200 L 700 200" />
  <text visibility="hidden" class="hdl21-wire-name"></text>
</g>
<g class="hdl21-wire">
  <path class="hdl21-wire" d="M 300 200 L 300 240 L 300 240" />
  <text visibility="hidden" class="hdl21-wire-name"></text>
</g>
<g class="hdl21-wire">
  <path class="hdl21-wire" d="M 260 170 L 260 240 L 260 240" />
  <text visibility="hidden" class="hdl21-wire-name"></text>
</g>
<g class="hdl21-wire">
  <path class="hdl21-wire" d="M 750 60 L 300 60 L 300 100 L 300 100" />
  <text visibility="hidden" class="hdl21-wire-name"></text>
</g>


<circle cx="400" cy="60" r="6" class="hdl21-dot" />
<circle cx="400" cy="240" r="6" class="hdl21-dot" />
<circle cx="400" cy="100" r="6" class="hdl21-dot" />
<circle cx="400" cy="200" r="6" class="hdl21-dot" />
<circle cx="550" cy="60" r="6" class="hdl21-dot" />
<circle cx="550" cy="240" r="6" class="hdl21-dot" />
<circle cx="550" cy="100" r="6" class="hdl21-dot" />
<circle cx="550" cy="200" r="6" class="hdl21-dot" />
<circle cx="700" cy="60" r="6" class="hdl21-dot" />
<circle cx="700" cy="100" r="6" class="hdl21-dot" />
<circle cx="700" cy="200" r="6" class="hdl21-dot" />
<circle cx="300" cy="240" r="6" class="hdl21-dot" />
<circle cx="300" cy="100" r="6" class="hdl21-dot" />
<circle cx="300" cy="200" r="6" class="hdl21-dot" />
<circle cx="260" cy="240" r="6" class="hdl21-dot" />
<circle cx="260" cy="130" r="6" class="hdl21-dot" />
<circle cx="260" cy="170" r="6" class="hdl21-dot" />
<circle cx="750" cy="60" r="6" class="hdl21-dot" />
<circle cx="220" cy="240" r="6" class="hdl21-dot" />
<circle cx="230" cy="130" r="6" class="hdl21-dot" />
<circle cx="530" cy="150" r="6" class="hdl21-dot" />
<circle cx="660" cy="150" r="6" class="hdl21-dot" />
<circle cx="380" cy="150" r="6" class="hdl21-dot" />


</svg>
