<?xml version="1.0" encoding="utf-8"?>
<svg width="600" height="1800" xmlns="http://www.w3.org/2000/svg">

<style id="hdl21-schematic-style">

/* Styling for Symbol and Wire Elements */
.hdl21-symbols {
  fill: none;
  stroke: black;
  stroke-opacity: 1;
  stroke-miterlimit: 0;
  stroke-linecap: round;
  stroke-linejoin: round;
  stroke-width: 10px;
  stroke-dashoffset: 0px;
}

.hdl21-instance-port {
  fill: white;
  stroke: black;
  stroke-opacity: 1;
  stroke-miterlimit: 0;
  stroke-linecap: round;
  stroke-linejoin: round;
  stroke-width: 4px;
  stroke-dashoffset: 0px;
}

.hdl21-dot {
  fill: blue;
  stroke: blue;
  stroke-opacity: 1;
  stroke-miterlimit: 0;
  stroke-linecap: round;
  stroke-linejoin: round;
  stroke-width: 4px;
  stroke-dashoffset: 0px;
}

.hdl21-wire {
  fill: none;
  stroke: blue;
  stroke-opacity: 1;
  stroke-miterlimit: 0;
  stroke-linecap: round;
  stroke-linejoin: round;
  stroke-width: 10px;
  stroke-dashoffset: 0px;
}

/* Styling for Text Labels */
.hdl21-labels,
.hdl21-instance-name,
.hdl21-instance-of,
.hdl21-port-name,
.hdl21-wire-name {
  fill: black;
  font-family: Menlo, Monaco, 'Courier New', monospace;
  font-weight: bold;
  font-size: 16px;
}

/* Dark Mode Color Overrides */
@media (prefers-color-scheme:dark) {
    svg {
        background-color: #1e1e1e;
    }
    .hdl21-dot {
        fill: #87d3f8;
        stroke: #87d3f8;
    }
    .hdl21-wire {
        stroke: #87d3f8;
    }
    .hdl21-symbols {
        stroke: lightgrey;
    }
    .hdl21-labels,
    .hdl21-port-name,
    .hdl21-instance-name,
    .hdl21-instance-of,
    .hdl21-wire-name {
        fill: lightgrey;
    }
}
</style>
<defs id="hdl21-schematic-defs">
  <g id="hdl21-schematic-prelude">
  <text></text>
  </g>

    <!-- Grid Background -->
    <pattern id="hdl21-grid-minor" width="10" height="10" patternUnits="userSpaceOnUse">
        <path d="M 10 0 L 0 0 0 10" fill="none" stroke="gray" stroke-width="0.5"/>
    </pattern>
    <pattern id="hdl21-grid-major" width="100" height="100" patternUnits="userSpaceOnUse">
        <rect width="100" height="100" fill="url(#hdl21-grid-minor)"/>
        <path d="M 100 0 L 0 0 0 100" fill="none" stroke="gray" stroke-width="1"/>
    </pattern>
</defs>

<rect id="hdl21-schematic-background" width="100%" height="100%" fill="url(#hdl21-grid-major)" stroke="gray" stroke-width="1"/>

<!-- Svg Schematic Content -->

<g class="hdl21-instance" transform="matrix(1 0 0 1 400 100)" >
  <g class="hdl21-elements-pmos">
    <path d="M 0 0 L 0 30 L -28 30 L -28 70 L 0 70 L 0 100" class="hdl21-symbols" />
    <path d="M -40 30 L -40 70" class="hdl21-symbols" />
    <path d="M -60 50 L -70 50" class="hdl21-symbols" />
    <path d="M 0 50 L 20 50" class="hdl21-symbols" />
    <path d="M -15 20 L -15 40 L -30 30 Z" class="hdl21-symbols" />
    <circle cx="-50" cy="50" r="8" fill="white" class="hdl21-symbols" />
    <circle cx="0" cy="100" r="4" class="hdl21-instance-port" />
    <circle cx="-70" cy="50" r="4" class="hdl21-instance-port" />
    <circle cx="0" cy="0" r="4" class="hdl21-instance-port" />
    <circle cx="20" cy="50" r="4" class="hdl21-instance-port" />
  </g>
  <text class="hdl21-instance-name" text-anchor="start" transform="matrix(1 0 0 1 10 20)" >p</text>
  <text class="hdl21-instance-of" text-anchor="start" transform="matrix(1 0 0 1 10 80)" >pmos()</text>
</g>
<g class="hdl21-instance" transform="matrix(1 0 0 1 200 100)" >
  <g class="hdl21-elements-nmos">
    <path d="M 0 0 L 0 30 L -28 30 L -28 70 L 0 70 L 0 100" class="hdl21-symbols" />
    <path d="M -40 30 L -40 70" class="hdl21-symbols" />
    <path d="M -40 50 L -70 50" class="hdl21-symbols" />
    <path d="M 0 50 L 20 50" class="hdl21-symbols" />
    <path d="M -10 60 L -10 80 L 5 70 Z" class="hdl21-symbols" />
    <circle cx="0" cy="0" r="4" class="hdl21-instance-port" />
    <circle cx="-70" cy="50" r="4" class="hdl21-instance-port" />
    <circle cx="0" cy="100" r="4" class="hdl21-instance-port" />
    <circle cx="20" cy="50" r="4" class="hdl21-instance-port" />
  </g>
  <text class="hdl21-instance-name" text-anchor="start" transform="matrix(1 0 0 1 10 20)" >n</text>
  <text class="hdl21-instance-of" text-anchor="start" transform="matrix(1 0 0 1 10 80)" >nmos()</text>
</g>
<g class="hdl21-instance" transform="matrix(1 0 0 1 200 300)" >
  <g class="hdl21-elements-res">
    <path d="M 0 0 L 0 20 L 30 30 L 0 40 L 30 50 L 0 60 L 30 70 L 0 80 L 0 100" class="hdl21-symbols" />
    <circle cx="0" cy="0" r="4" class="hdl21-instance-port" />
    <circle cx="0" cy="100" r="4" class="hdl21-instance-port" />
  </g>
  <text class="hdl21-instance-name" text-anchor="start" transform="matrix(1 0 0 1 10 0)" >r</text>
  <text class="hdl21-instance-of" text-anchor="start" transform="matrix(1 0 0 1 10 90)" >res()</text>
</g>
<g class="hdl21-instance" transform="matrix(1 0 0 1 400 300)" >
  <g class="hdl21-elements-res3">
    <path d="M 0 0 L 0 20 L 30 30 L 0 40 L 30 50 L 0 60 L 30 70 L 0 80 L 0 100" class="hdl21-symbols" />
    <path d="M -5 50 L -20 50" class="hdl21-symbols" />
    <circle cx="0" cy="0" r="4" class="hdl21-instance-port" />
    <circle cx="0" cy="100" r="4" class="hdl21-instance-port" />
    <circle cx="-20" cy="50" r="4" class="hdl21-instance-port" />
  </g>
  <text class="hdl21-instance-name" text-anchor="start" transform="matrix(1 0 0 1 10 0)" >r3</text>
  <text class="hdl21-instance-of" text-anchor="start" transform="matrix(1 0 0 1 10 90)" >res3()</text>
</g>
<g class="hdl21-instance" transform="matrix(1 0 0 1 200 500)" >
  <g class="hdl21-elements-cap">
    <path d="M 0 0 L 0 40" class="hdl21-symbols" />
    <path d="M -20 40 L 20 40" class="hdl21-symbols" />
    <path d="M -20 60 L 20 60" class="hdl21-symbols" />
    <path d="M 0 60 L 0 100" class="hdl21-symbols" />
    <circle cx="0" cy="0" r="4" class="hdl21-instance-port" />
    <circle cx="0" cy="100" r="4" class="hdl21-instance-port" />
  </g>
  <text class="hdl21-instance-name" text-anchor="start" transform="matrix(1 0 0 1 10 0)" >c</text>
  <text class="hdl21-instance-of" text-anchor="start" transform="matrix(1 0 0 1 10 90)" >cap()</text>
</g>
<g class="hdl21-instance" transform="matrix(1 0 0 1 400 500)" >
  <g class="hdl21-elements-cap3">
    <path d="M 0 0 L 0 40" class="hdl21-symbols" />
    <path d="M -20 40 L 20 40" class="hdl21-symbols" />
    <path d="M -20 60 L 20 60" class="hdl21-symbols" />
    <path d="M 0 60 L 0 100" class="hdl21-symbols" />
    <path d="M -40 50 L -25 50" class="hdl21-symbols" />
    <circle cx="0" cy="0" r="4" class="hdl21-instance-port" />
    <circle cx="0" cy="100" r="4" class="hdl21-instance-port" />
    <circle cx="-40" cy="50" r="4" class="hdl21-instance-port" />
  </g>
  <text class="hdl21-instance-name" text-anchor="start" transform="matrix(1 0 0 1 10 0)" >c3</text>
  <text class="hdl21-instance-of" text-anchor="start" transform="matrix(1 0 0 1 10 90)" >cap3()</text>
</g>
<g class="hdl21-instance" transform="matrix(1 0 0 1 200 700)" >
  <g class="hdl21-elements-ind">
    <path d="M 0 20 C 36 20, 36 40, 0 40 C 36 40, 36 60, 0 60 C 36 60, 36 80, 0 80" class="hdl21-symbols"/>
    <path d="M 0 0 L 0 20" class="hdl21-symbols" />
    <path d="M 0 80 L 0 100" class="hdl21-symbols" />
    <circle cx="0" cy="0" r="4" class="hdl21-instance-port" />
    <circle cx="0" cy="100" r="4" class="hdl21-instance-port" />
  </g>
  <text class="hdl21-instance-name" text-anchor="start" transform="matrix(1 0 0 1 10 0)" >l</text>
  <text class="hdl21-instance-of" text-anchor="start" transform="matrix(1 0 0 1 10 90)" >ind()</text>
</g>
<g class="hdl21-instance" transform="matrix(1 0 0 1 400 700)" >
  <g class="hdl21-elements-ind3">
    <path d="M 0 20 C 36 20, 36 40, 0 40 C 36 40, 36 60, 0 60 C 36 60, 36 80, 0 80" class="hdl21-symbols"/>
    <path d="M 0 0 L 0 20" class="hdl21-symbols" />
    <path d="M 0 80 L 0 100" class="hdl21-symbols" />
    <path d="M -5 50 L -20 50" class="hdl21-symbols" />
    <circle cx="0" cy="0" r="4" class="hdl21-instance-port" />
    <circle cx="0" cy="100" r="4" class="hdl21-instance-port" />
    <circle cx="-20" cy="50" r="4" class="hdl21-instance-port" />
  </g>
  <text class="hdl21-instance-name" text-anchor="start" transform="matrix(1 0 0 1 10 0)" >l3</text>
  <text class="hdl21-instance-of" text-anchor="start" transform="matrix(1 0 0 1 10 90)" >ind3()</text>
</g>
<g class="hdl21-instance" transform="matrix(1 0 0 1 200 900)" >
  <g class="hdl21-elements-vsource">
    <circle cx="0" cy="50" r="30" class="hdl21-symbols" />
    <path d="M 0 0 L 0 20" class="hdl21-symbols" />
    <path d="M 0 80 L 0 100" class="hdl21-symbols" />
    <path d="M 0 32 L 0 52" class="hdl21-symbols" />
    <path d="M -10 42 L 10 42" class="hdl21-symbols" />
    <path d="M -10 65 L 10 65" class="hdl21-symbols" />
    <circle cx="0" cy="0" r="4" class="hdl21-instance-port" />
    <circle cx="0" cy="100" r="4" class="hdl21-instance-port" />
  </g>
  <text class="hdl21-instance-name" text-anchor="start" transform="matrix(1 0 0 1 10 0)" >v</text>
  <text class="hdl21-instance-of" text-anchor="start" transform="matrix(1 0 0 1 10 90)" >vsource()</text>
</g>
<g class="hdl21-instance" transform="matrix(1 0 0 1 400 900)" >
  <g class="hdl21-elements-vsource4">
    <circle cx="0" cy="50" r="30" class="hdl21-symbols" />
    <path d="M 0 0 L 0 20" class="hdl21-symbols" />
    <path d="M 0 80 L 0 100" class="hdl21-symbols" />
    <path d="M 0 32 L 0 52" class="hdl21-symbols" />
    <path d="M -10 42 L 10 42" class="hdl21-symbols" />
    <path d="M -10 65 L 10 65" class="hdl21-symbols" />
    <path d="M -40 30 L -25 30" class="hdl21-symbols" />
    <path d="M -40 70 L -25 70" class="hdl21-symbols" />
    <circle cx="0" cy="0" r="4" class="hdl21-instance-port" />
    <circle cx="0" cy="100" r="4" class="hdl21-instance-port" />
    <circle cx="-40" cy="30" r="4" class="hdl21-instance-port" />
    <circle cx="-40" cy="70" r="4" class="hdl21-instance-port" />
  </g>
  <text class="hdl21-instance-name" text-anchor="start" transform="matrix(1 0 0 1 10 0)" >v4</text>
  <text class="hdl21-instance-of" text-anchor="start" transform="matrix(1 0 0 1 10 90)" >vsource4()</text>
</g>
<g class="hdl21-instance" transform="matrix(1 0 0 1 200 1100)" >
  <g class="hdl21-elements-isource">
    <circle cx="0" cy="50" r="30" class="hdl21-symbols" />
    <path d="M 0 0 L 0 20" class="hdl21-symbols" />
    <path d="M 0 80 L 0 100" class="hdl21-symbols" />
    <path d="M 0 35 L 0 65" class="hdl21-symbols" />
    <path d="M 0 35 L -10 47 L 10 47 Z" class="hdl21-symbols" />
    <circle cx="0" cy="0" r="4" class="hdl21-instance-port" />
    <circle cx="0" cy="100" r="4" class="hdl21-instance-port" />
  </g>
  <text class="hdl21-instance-name" text-anchor="start" transform="matrix(1 0 0 1 10 0)" >i</text>
  <text class="hdl21-instance-of" text-anchor="start" transform="matrix(1 0 0 1 10 90)" >isource()</text>
</g>
<g class="hdl21-instance" transform="matrix(1 0 0 1 400 1100)" >
  <g class="hdl21-elements-isource4">
    <circle cx="0" cy="50" r="30" class="hdl21-symbols" />
    <path d="M 0 0 L 0 20" class="hdl21-symbols" />
    <path d="M 0 80 L 0 100" class="hdl21-symbols" />
    <path d="M 0 35 L 0 65" class="hdl21-symbols" />
    <path d="M 0 35 L -10 47 L 10 47 Z" class="hdl21-symbols" />
    <path d="M -40 30 L -25 30" class="hdl21-symbols" />
    <path d="M -40 70 L -25 70" class="hdl21-symbols" />
    <circle cx="0" cy="0" r="4" class="hdl21-instance-port" />
    <circle cx="0" cy="100" r="4" class="hdl21-instance-port" />
    <circle cx="-40" cy="30" r="4" class="hdl21-instance-port" />
    <circle cx="-40" cy="70" r="4" class="hdl21-instance-port" />
  </g>
  <text class="hdl21-instance-name" text-anchor="start" transform="matrix(1 0 0 1 10 0)" >i4</text>
  <text class="hdl21-instance-of" text-anchor="start" transform="matrix(1 0 0 1 10 90)" >isource4()</text>
</g>
<g class="hdl21-instance" transform="matrix(1 0 0 1 200 1500)" >
  <g class="hdl21-elements-diode">
    <path d="M 0 70 L -20 35 L 20 35 Z" class="hdl21-symbols" />
    <path d="M -20 65 L 20 65" class="hdl21-symbols" />
    <path d="M 0 0 L 0 35" class="hdl21-symbols" />
    <path d="M 0 65 L 0 100" class="hdl21-symbols" />
    <circle cx="0" cy="0" r="4" class="hdl21-instance-port" />
    <circle cx="0" cy="100" r="4" class="hdl21-instance-port" />
  </g>
  <text class="hdl21-instance-name" text-anchor="start" transform="matrix(1 0 0 1 10 0)" >d</text>
  <text class="hdl21-instance-of" text-anchor="start" transform="matrix(1 0 0 1 10 90)" >diode()</text>
</g>
<g class="hdl21-instance" transform="matrix(1 0 0 1 200 1300)" >
  <g class="hdl21-elements-npn">
    <path d="M 0 0 L 0 20 L -30 40 L -30 60 L 0 80 L 0 100" class="hdl21-symbols" />
    <path d="M -30 80 L -30 20" class="hdl21-symbols" />
    <path d="M -30 50 L -50 50" class="hdl21-symbols" />
    <path d="M -20 78 L -10 62 L 0 80 Z" class="hdl21-symbols" />
    <circle cx="0" cy="0" r="4" class="hdl21-instance-port" />
    <circle cx="-50" cy="50" r="4" class="hdl21-instance-port" />
    <circle cx="0" cy="100" r="4" class="hdl21-instance-port" />
  </g>
  <text class="hdl21-instance-name" text-anchor="start" transform="matrix(1 0 0 1 10 0)" >npn</text>
  <text class="hdl21-instance-of" text-anchor="start" transform="matrix(1 0 0 1 10 90)" >npn()</text>
</g>
<g class="hdl21-instance" transform="matrix(1 0 0 1 400 1300)" >
  <g class="hdl21-elements-pnp">
    <path d="M 0 0 L 0 20 L -30 40 L -30 60 L 0 80 L 0 100" class="hdl21-symbols" />
    <path d="M -30 80 L -30 20" class="hdl21-symbols" />
    <path d="M -30 50 L -50 50" class="hdl21-symbols" />
    <path d="M -20 22 L -10 38 L -30 40 Z" class="hdl21-symbols" />
    <circle cx="0" cy="0" r="4" class="hdl21-instance-port" />
    <circle cx="-50" cy="50" r="4" class="hdl21-instance-port" />
    <circle cx="0" cy="100" r="4" class="hdl21-instance-port" />
  </g>
  <text class="hdl21-instance-name" text-anchor="start" transform="matrix(1 0 0 1 10 0)" >pnp</text>
  <text class="hdl21-instance-of" text-anchor="start" transform="matrix(1 0 0 1 10 90)" >pnp()</text>
</g>


<g class="hdl21-port" transform="matrix(1 0 0 1 200 1700)" >
  <g class="hdl21-ports-input">
    <path d="M -50 -10 L -50 10 L -30 10 L -20 0 L -30 -10 Z" class="hdl21-symbols" />
    <path d="M -20 0 L 0 0" class="hdl21-symbols" />
    <circle cx="0" cy="0" r="4" class="hdl21-instance-port" />
  </g>
  <text class="hdl21-port-name" text-anchor="start" transform="matrix(1 0 0 1 -50 -25)" >Input</text>
</g>
<g class="hdl21-port" transform="matrix(1 0 0 1 270 1700)" >
  <g class="hdl21-ports-output">
    <path d="M 20 -10 L 20 10 L 40 10 L 50 0 L 40 -10 Z" class="hdl21-symbols" />
    <path d="M 0 0 L 20 0" class="hdl21-symbols" />
    <circle cx="0" cy="0" r="4" class="hdl21-instance-port" />
  </g>
  <text class="hdl21-port-name" text-anchor="start" transform="matrix(1 0 0 1 20 -25)" >Output</text>
</g>
<g class="hdl21-port" transform="matrix(1 0 0 1 400 1700)" >
  <g class="hdl21-ports-inout">
    <path d="M 20 -10 L 10 0 L 20 10 L 40 10 L 50 0 L 40 -10 Z" class="hdl21-symbols" />
    <path d="M 0 0 L 10 0" class="hdl21-symbols" />
    <circle cx="0" cy="0" r="4" class="hdl21-instance-port" />
  </g>
  <text class="hdl21-port-name" text-anchor="start" transform="matrix(1 0 0 1 15 -25)" >Inout</text>
</g>






</svg>
